# xmcd
#
# Track frame offsets:
#	150
#	28675
#	47812
#	69005
#	86637
#	118790
#	141325
#	160570
#	185085
#	205760
#	228452
#	249577
#	276475
#	302910
#
# Disc length: 4260 seconds
#
# Revision: 2
# Processed by: cddbd v1.5PL3 Copyright (c) Steve Scherf et al.
# Submitted via: audiograbber 1.81.02
#
DISCID=c810a20e
DTITLE=Stevie Wonder - Greatest Hits
DYEAR=1993
DGENRE=R&B
TTITLE0=I Just Called to Say I Love You
TTITLE1=Free
TTITLE2=The Woman in Red
TTITLE3=Galaxy Paradise
TTITLE4=My Eyes Don't Cry
TTITLE5=It's You (with Dionne Warwick)
TTITLE6=Weakness (with Dionne Warwick)
TTITLE7=Weakness (with Dionne Warwick)
TTITLE8=Get It (with Dionne Warwick)
TTITLE9=You Will Know
TTITLE10=Dark'n'Lovely
TTITLE11=With Each Beat of My Heart
TTITLE12=Cryin' Through the Night
TTITLE13=Ebony and Ivory (with Paul McCartney)
EXTD=
EXTT0=
EXTT1=
EXTT2=
EXTT3=
EXTT4=
EXTT5=
EXTT6=
EXTT7=
EXTT8=
EXTT9=
EXTT10=
EXTT11=
EXTT12=
EXTT13=
PLAYORDER=
